<svg id="Icons" height="512" viewBox="0 0 74 74" width="512" xmlns="http://www.w3.org/2000/svg"><path d="m62.137 58.424a1 1 0 0 1 -.707-1.707c11.425-11.425 11.425-28.009 0-39.434a1 1 0 0 1 1.414-1.414c12.244 12.244 12.244 30.018 0 42.262a1 1 0 0 1 -.707.293z"/><path d="m55.912 52.2a1 1 0 0 1 -.707-1.707c7.943-7.943 7.943-19.039 0-26.982a1 1 0 0 1 1.414-1.411c8.776 8.776 8.776 21.034 0 29.81a.993.993 0 0 1 -.707.29z"/><path d="m50.749 45.973a1 1 0 0 1 -.707-1.707c4.549-4.55 4.549-9.982 0-14.532a1 1 0 0 1 1.414-1.414c5.354 5.354 5.354 12.006 0 17.36a1 1 0 0 1 -.707.293z"/><path d="m13.461 52.877h-10.107a1.355 1.355 0 0 1 -1.354-1.354v-29.046a1.355 1.355 0 0 1 1.354-1.354h10.107a1 1 0 0 1 1 1v29.754a1 1 0 0 1 -1 1zm-9.461-2h8.461v-27.754h-8.461z"/><path d="m40.572 70.583a1 1 0 0 1 -.547-.162l-27.111-17.707a1 1 0 0 1 1.094-1.674l25.564 16.7v-61.476l-25.564 16.696a1 1 0 0 1 -1.094-1.674l27.111-17.707a1 1 0 0 1 1.547.838v65.166a1 1 0 0 1 -1 1z"/><path d="m40.736 44.913a1 1 0 0 1 0-2 5.913 5.913 0 1 0 0-11.826 1 1 0 0 1 0-2 7.913 7.913 0 1 1 0 15.826z"/></svg>